<svg display="none" xmlns="http://www.w3.org/2000/svg">
    <symbol id="iconArrow" viewBox="0 0 67 24">
        <g>
            <path d="M66.0607 10.9393C66.6464 11.5251 66.6464 12.4749 66.0607 13.0607L56.5147 22.6066C55.9289 23.1924 54.9792 23.1924 54.3934 22.6066C53.8076 22.0208 53.8076 21.0711 54.3934 20.4853L62.8787 12L54.3934 3.51471C53.8076 2.92893 53.8076 1.97918 54.3934 1.39339C54.9792 0.807607 55.9289 0.807607 56.5147 1.39339L66.0607 10.9393ZM-1.31134e-07 10.5L65 10.5L65 13.5L1.31134e-07 13.5L-1.31134e-07 10.5Z"/>
        </g>
    </symbol>
        <symbol id="iconPlaceholder" viewBox="0 0 25 25">
        <g>
            <path d="M12.4826 0C7.43046 0 3.32031 4.11015 3.32031 9.16233C3.32031 11.4832 4.78268 14.7623 7.66697 18.9087C9.77516 21.9397 11.8486 24.2851 11.936 24.3835L12.4826 25L13.0295 24.3835C13.1166 24.2851 15.1901 21.9397 17.2985 18.9087C20.1826 14.7623 21.6452 11.4832 21.6452 9.16233C21.6452 4.11015 17.5348 0 12.4826 0ZM16.1066 18.0622C14.6816 20.1122 13.2414 21.8765 12.4826 22.7766C11.7258 21.879 10.2909 20.1214 8.86688 18.074C6.1945 14.2323 4.78191 11.1506 4.78191 9.16233C4.78191 4.91619 8.2365 1.4616 12.4826 1.4616C16.729 1.4616 20.1834 4.91619 20.1834 9.16233C20.1834 11.1485 18.7737 14.226 16.1066 18.0622Z"/>
            <path d="M12.4826 3.38623C9.50089 3.38623 7.07512 5.812 7.07512 8.79375C7.07512 11.7755 9.50089 14.2015 12.4826 14.2015C15.4646 14.2015 17.8904 11.7755 17.8904 8.79375C17.8904 5.812 15.4646 3.38623 12.4826 3.38623ZM12.4826 12.7399C10.3069 12.7399 8.53672 10.9697 8.53672 8.79375C8.53672 6.61804 10.3069 4.84783 12.4826 4.84783C14.6585 4.84783 16.4288 6.61804 16.4288 8.79375C16.4288 10.9697 14.6585 12.7399 12.4826 12.7399Z"/>
        </g>
    </symbol>
     <symbol id="iconMouse" viewBox="0 0 30 30">
        <g opacity="0.8" clip-path="url(#clip0)">
            <path d="M14.9767 0C10.1109 0 6.15235 3.95851 6.15235 8.82431V21.1757C6.15235 26.0415 10.1109 30 14.9767 30C19.8425 30 23.801 26.0415 23.801 21.1757V8.82431C23.801 3.95851 19.8425 0 14.9767 0ZM22.001 21.1757C22.001 25.0488 18.8498 28.2001 14.9767 28.2001C11.1035 28.2001 7.95228 25.0488 7.95228 21.1757V8.82431C7.95228 4.95117 11.1035 1.79993 14.9767 1.79993C18.8498 1.79993 22.001 4.95117 22.001 8.82431V21.1757Z" fill="white"/>
            <path d="M14.9769 5.9679C14.4798 5.9679 14.0769 6.37073 14.0769 6.86786V11.0102C14.0769 11.5071 14.4798 11.9101 14.9769 11.9101C15.4738 11.9101 15.8768 11.5071 15.8768 11.0102V6.86786C15.8768 6.37073 15.474 5.9679 14.9769 5.9679Z" fill="white"/>
        </g>
    </symbol>
    <symbol id="iconPlane" viewBox="0 0 30 30">
        <g>
            <path d="M28.8926 0.0731982L25.718 1.51816C25.5147 1.61199 25.3271 1.74023 25.1676 1.89974L19.9945 7.07597L2.17947 4.93979C1.85733 4.90226 1.53205 5.01173 1.30374 5.24317L0.312277 6.23463C-0.213166 6.76008 -0.0505287 7.64832 0.628168 7.9517L13.3952 13.6753L9.72958 17.3409H3.32731C3.04583 17.3409 2.77685 17.4535 2.57668 17.6505L2.04186 18.1884C1.51016 18.7201 1.68531 19.6177 2.37339 19.9118L7.77481 22.2262L10.0893 27.6276C10.3833 28.3157 11.284 28.4909 11.8126 27.9592L12.3505 27.4212C12.5507 27.221 12.6602 26.9521 12.6602 26.6706V20.2683L16.3258 16.6027L22.0493 29.3729C22.3527 30.0516 23.2409 30.2142 23.7664 29.6888L24.7578 28.6973C24.9893 28.4659 25.0987 28.1437 25.0612 27.8216L22.9219 10.0066L28.0981 4.83036C28.2577 4.67085 28.3859 4.48632 28.4797 4.27989L29.9247 1.10535C30.2281 0.451642 29.5525 -0.227054 28.8926 0.0731982Z"/>
        </g>
    </symbol>
</svg>